<?xml version="1.0" encoding="UTF-8" ?>
<!DOCTYPE svg PUBLIC "-//W3C//DTD SVG 1.1//EN" "http://www.w3.org/Graphics/SVG/1.1/DTD/svg11.dtd">
<svg width="512pt" height="512pt" viewBox="0 0 512 512" version="1.1" xmlns="http://www.w3.org/2000/svg">
<g id="#000000ff">
<path fill="#000000" opacity="1.00" d=" M 229.60 0.00 L 282.30 0.00 C 307.59 1.39 332.34 11.72 350.68 29.28 C 366.51 44.18 377.47 64.05 381.89 85.32 C 396.71 85.61 411.73 84.32 426.34 87.44 C 453.55 92.76 478.24 109.34 493.68 132.33 C 504.80 148.57 510.94 167.95 512.00 187.56 L 512.00 256.00 C 341.33 256.00 170.67 256.00 0.00 256.00 L 0.00 187.61 C 1.07 166.30 8.34 145.27 21.24 128.22 C 37.01 107.01 60.90 92.01 86.91 87.19 C 101.14 84.38 115.70 85.61 130.10 85.32 C 134.65 63.37 146.19 42.91 162.85 27.87 C 180.99 11.18 205.04 1.41 229.60 0.00 M 174.60 85.32 C 228.87 85.34 283.14 85.34 337.41 85.32 C 330.59 65.88 313.92 50.23 293.97 44.96 C 282.94 41.74 271.35 42.87 260.03 42.67 C 249.68 42.82 239.32 42.33 228.99 42.97 C 204.65 44.96 182.53 62.24 174.60 85.32 Z" />
<path fill="#000000" opacity="1.00" d=" M 0.00 298.67 C 78.22 298.66 156.43 298.67 234.65 298.66 C 234.80 306.45 234.44 314.24 234.81 322.02 C 235.50 332.63 245.32 341.52 255.93 341.32 C 266.60 341.59 276.52 332.65 277.19 321.97 C 277.56 314.20 277.20 306.43 277.36 298.66 C 355.57 298.68 433.79 298.66 512.00 298.67 L 512.00 407.65 C 511.38 440.32 494.81 472.15 468.35 491.32 C 451.82 503.65 431.62 510.50 411.12 512.00 L 101.77 512.00 C 77.18 510.63 53.08 500.88 34.93 484.15 C 14.11 465.45 1.50 438.30 0.00 410.40 L 0.00 298.67 Z" />
</g>
</svg>
