<?xml version="1.0" encoding="UTF-8" ?>
<!DOCTYPE svg PUBLIC "-//W3C//DTD SVG 1.1//EN" "http://www.w3.org/Graphics/SVG/1.1/DTD/svg11.dtd">
<svg width="800pt" height="800pt" viewBox="0 0 800 800" version="1.1" xmlns="http://www.w3.org/2000/svg">
<g id="#330033ff">
<path fill="#330033" opacity="1.00" d=" M 0.00 0.00 L 15.61 0.00 C 49.01 25.17 83.05 49.50 116.88 74.10 C 119.24 75.35 121.86 80.72 114.14 76.72 C 82.50 73.20 50.82 70.11 19.20 66.48 C 17.61 67.33 15.98 68.72 18.66 69.35 C 51.72 72.74 84.89 76.54 118.01 79.99 C 119.33 80.12 120.62 80.42 121.89 80.80 L 121.87 81.69 C 97.56 105.46 72.50 128.40 48.17 152.15 C 39.41 159.00 32.59 167.98 23.82 174.82 C 16.00 182.44 8.43 190.32 0.00 197.28 L 0.00 0.00 Z" />
<path fill="#330033" opacity="1.00" d=" M 20.62 0.00 L 100.71 0.00 C 106.64 20.06 113.36 39.89 119.09 60.02 C 120.42 65.00 123.41 69.61 123.12 74.95 C 100.70 59.90 79.55 43.01 57.36 27.61 C 45.30 18.16 32.36 9.85 20.62 0.00 Z" />
<path fill="#330033" opacity="1.00" d=" M 103.87 0.00 L 239.45 0.00 C 204.32 25.17 168.03 48.77 132.63 73.59 C 131.47 74.28 130.21 74.81 128.92 75.20 C 128.42 75.11 127.42 74.94 126.91 74.86 C 119.19 49.92 111.50 24.96 103.87 0.00 Z" />
<path fill="#330033" opacity="1.00" d=" M 244.44 0.00 L 312.68 0.00 C 329.53 32.46 347.08 64.58 364.03 96.99 C 365.01 98.75 365.86 101.60 363.77 102.88 C 288.57 94.63 213.26 87.02 138.00 79.09 C 130.12 83.14 132.70 73.68 136.94 73.88 C 172.68 49.13 209.08 25.27 244.44 0.00 Z" />
<path fill="#330033" opacity="1.00" d=" M 315.90 0.00 L 424.54 0.00 C 425.55 0.90 426.58 1.85 428.00 2.03 C 469.45 13.86 511.25 24.48 552.68 36.38 C 558.40 38.48 564.92 38.68 570.23 41.81 C 508.93 61.24 447.14 79.52 385.69 98.64 C 381.19 100.08 376.54 101.72 371.89 100.17 C 371.16 100.06 369.72 99.84 368.99 99.73 C 351.06 66.61 333.41 33.34 315.90 0.00 Z" />
<path fill="#330033" opacity="1.00" d=" M 433.54 0.00 L 563.75 0.00 C 566.39 12.56 572.00 24.32 574.93 36.82 C 571.68 39.98 566.63 36.15 562.92 36.05 C 519.98 23.39 476.35 13.06 433.54 0.00 Z" />
<path fill="#330033" opacity="1.00" d=" M 566.77 0.00 L 637.36 0.00 C 622.00 11.18 606.09 21.57 590.65 32.63 C 587.32 34.79 584.07 37.66 579.86 37.14 C 579.39 37.03 578.46 36.81 577.99 36.70 C 574.95 24.25 569.54 12.53 566.77 0.00 Z" />
<path fill="#330033" opacity="1.00" d=" M 641.37 0.00 L 800.00 0.00 L 800.00 64.11 C 728.22 56.89 656.58 48.30 584.82 40.82 C 585.24 38.76 587.53 38.17 588.97 36.95 C 606.41 24.60 624.55 13.19 641.37 0.00 Z" />
<path fill="#330033" opacity="1.00" d=" M 583.90 44.00 C 648.29 50.76 712.62 58.22 777.00 65.05 C 784.65 65.83 792.27 67.24 800.00 67.07 L 800.00 348.23 C 789.41 346.25 779.44 341.64 769.00 339.00 C 695.78 316.19 622.55 293.40 549.33 270.59 C 546.10 269.78 549.93 268.61 551.31 268.39 C 620.56 256.27 689.84 244.32 759.09 232.22 C 762.03 231.41 764.49 233.26 767.11 233.99 C 771.06 235.07 775.36 231.35 773.73 227.29 C 773.02 224.29 769.62 223.89 767.04 224.05 C 766.62 223.94 765.76 223.72 765.33 223.61 C 750.33 209.65 736.82 194.08 721.27 180.71 C 704.13 164.19 688.11 146.49 670.24 130.76 C 656.75 117.24 643.24 103.76 629.76 90.24 C 613.82 76.25 599.41 60.61 584.30 45.74 C 584.20 45.31 584.00 44.43 583.90 44.00 Z" />
<path fill="#330033" opacity="1.00" d=" M 569.65 45.50 C 572.34 43.98 575.93 46.71 574.62 49.66 C 562.17 121.05 550.52 192.57 538.06 263.95 L 537.09 264.16 C 526.38 256.86 518.49 245.87 508.69 237.33 C 496.80 227.25 486.49 215.50 475.22 204.77 C 460.54 192.52 448.43 177.51 433.82 165.18 C 421.76 153.91 410.94 141.32 398.25 130.75 C 390.45 122.81 382.30 115.20 374.80 106.97 C 374.93 106.49 375.18 105.53 375.30 105.05 C 440.04 85.07 504.90 65.39 569.65 45.50 Z" />
<path fill="#330033" opacity="1.00" d=" M 578.06 47.28 C 578.53 47.17 579.47 46.96 579.94 46.86 C 581.45 47.71 583.04 48.45 584.21 49.81 C 599.57 64.43 613.70 80.37 629.75 94.25 C 642.79 107.21 655.70 120.30 668.77 133.23 C 688.35 150.26 705.14 170.27 724.77 187.25 C 737.83 200.60 751.45 213.42 764.18 227.09 L 763.93 228.06 C 758.26 229.93 752.17 230.06 746.39 231.48 C 680.55 242.86 614.73 254.35 548.90 265.77 C 545.50 267.87 543.93 265.55 542.15 263.75 C 541.77 259.94 543.19 256.16 543.51 252.41 C 554.83 184.00 566.78 115.69 578.06 47.28 Z" />
<path fill="#330033" opacity="1.00" d=" M 131.99 81.84 C 209.63 89.63 287.22 98.08 364.84 106.10 L 365.20 106.99 C 362.33 112.59 357.74 116.98 353.77 121.77 C 316.51 165.51 279.23 209.24 241.99 252.99 C 241.09 254.17 239.93 255.10 238.80 256.04 C 238.11 255.98 236.72 255.86 236.02 255.79 C 229.79 248.12 225.84 238.88 220.23 230.77 C 190.91 182.47 161.40 134.22 132.13 85.92 C 132.01 84.56 131.96 83.20 131.99 81.84 Z" />
<path fill="#330033" opacity="1.00" d=" M 106.06 101.07 C 112.82 96.18 117.03 87.80 125.03 84.79 C 125.77 84.88 127.24 85.07 127.97 85.16 C 162.51 140.73 196.06 196.94 230.31 252.70 C 231.34 254.45 233.22 257.31 230.81 258.80 C 216.02 256.85 201.17 254.18 186.24 254.12 C 183.33 256.08 187.29 256.70 189.01 256.96 C 203.23 258.70 217.46 260.38 231.68 262.07 C 233.00 264.86 236.33 267.31 239.37 265.41 C 241.97 264.54 241.97 261.30 241.94 259.02 C 244.58 253.31 249.33 249.03 253.23 244.23 C 280.18 212.52 307.24 180.91 334.23 149.23 C 345.65 136.26 356.24 122.53 368.17 110.01 C 369.42 109.97 370.69 109.92 371.95 109.87 C 382.46 117.16 390.28 127.70 399.77 136.23 C 414.77 148.84 427.21 164.18 442.23 176.76 C 450.83 185.16 459.14 193.84 467.77 202.21 C 479.90 212.34 490.30 224.35 501.77 235.21 C 512.32 243.93 521.39 254.27 531.27 263.72 C 533.45 265.40 535.17 270.77 528.03 267.01 C 513.65 267.69 499.34 265.99 484.99 265.99 C 482.95 265.66 481.94 267.62 480.77 268.89 C 497.23 268.58 513.55 270.73 530.02 269.99 C 532.57 269.20 535.40 274.13 530.07 274.06 C 484.81 308.09 439.84 342.49 394.64 376.60 C 393.96 376.71 392.60 376.93 391.92 377.04 C 389.41 376.82 386.94 377.51 385.06 379.20 C 384.39 382.51 386.27 390.02 391.67 386.71 C 395.00 386.09 395.36 383.04 395.07 380.19 C 440.63 344.94 486.88 310.60 532.59 275.56 C 533.86 274.45 535.45 273.98 537.11 273.77 C 537.58 273.90 538.53 274.17 539.00 274.30 C 559.23 345.58 579.70 416.79 600.01 488.04 C 595.89 488.45 592.57 485.50 588.98 484.03 C 581.77 480.73 575.24 476.10 567.91 473.08 C 566.44 472.54 565.48 473.58 564.98 474.83 C 575.25 480.35 585.57 485.78 595.94 491.12 C 595.95 491.55 595.97 492.41 595.98 492.84 C 577.61 495.30 559.31 498.25 540.98 500.93 C 539.00 500.85 537.86 502.58 536.84 504.01 C 555.01 502.15 573.00 498.65 591.11 496.16 C 593.66 496.13 596.96 494.86 598.85 497.11 C 597.77 500.96 595.72 504.42 594.00 508.00 C 577.00 542.00 560.00 576.00 543.00 610.00 C 535.32 624.75 529.04 640.17 520.99 654.73 C 518.88 655.15 516.70 655.75 515.05 657.21 C 511.78 663.05 519.70 667.20 523.69 663.70 C 525.93 662.79 524.75 659.96 524.83 658.12 C 523.73 654.10 526.45 650.49 527.97 646.99 C 552.89 597.52 577.49 547.90 601.97 498.25 C 605.73 498.56 610.13 495.68 607.98 491.04 C 607.74 488.92 604.58 488.66 603.02 487.58 C 582.72 416.45 562.33 345.33 542.09 274.19 C 543.92 271.64 547.79 273.79 550.02 273.96 C 633.29 300.09 716.70 325.83 800.00 351.89 L 800.00 800.00 L 0.00 800.00 L 0.00 201.29 C 35.64 168.17 70.60 134.35 106.06 101.07 M 100.27 377.29 C 96.82 378.08 94.94 384.84 98.97 386.06 C 101.52 388.03 104.75 386.64 106.92 384.82 C 108.70 380.51 104.57 375.55 100.27 377.29 M 307.30 533.28 C 302.35 534.03 303.05 541.54 307.27 542.71 C 309.65 543.78 312.05 542.18 313.92 540.82 C 314.65 537.48 312.70 529.97 307.30 533.28 M 38.27 594.28 C 33.44 595.23 34.58 601.07 37.18 603.92 C 40.52 604.65 48.03 602.70 44.71 597.30 C 44.06 594.62 40.73 593.31 38.27 594.28 M 728.27 732.17 C 725.27 733.88 724.07 739.79 727.97 741.06 C 730.52 743.02 733.74 741.63 735.92 739.82 C 736.98 735.50 733.90 728.99 728.27 732.17 M 293.27 759.29 C 292.18 760.08 289.88 760.34 290.02 762.03 C 287.00 767.56 294.26 769.69 297.82 768.92 C 299.50 766.78 302.06 761.86 298.69 760.31 C 297.10 759.31 295.12 758.40 293.27 759.29 Z" />
</g>
<g id="#380038ff">
<path fill="#380038" opacity="1.00" d=" M 15.61 0.00 L 20.62 0.00 C 32.36 9.85 45.30 18.16 57.36 27.61 C 79.55 43.01 100.70 59.90 123.12 74.95 C 123.41 69.61 120.42 65.00 119.09 60.02 C 113.36 39.89 106.64 20.06 100.71 0.00 L 103.87 0.00 C 111.50 24.96 119.19 49.92 126.91 74.86 C 123.73 75.22 121.89 77.66 121.89 80.80 C 120.62 80.42 119.33 80.12 118.01 79.99 C 84.89 76.54 51.72 72.74 18.66 69.35 C 15.98 68.72 17.61 67.33 19.20 66.48 C 50.82 70.11 82.50 73.20 114.14 76.72 C 121.86 80.72 119.24 75.35 116.88 74.10 C 83.05 49.50 49.01 25.17 15.61 0.00 Z" />
<path fill="#380038" opacity="1.00" d=" M 239.45 0.00 L 244.44 0.00 C 209.08 25.27 172.68 49.13 136.94 73.88 C 132.70 73.68 130.12 83.14 138.00 79.09 C 213.26 87.02 288.57 94.63 363.77 102.88 C 365.86 101.60 365.01 98.75 364.03 96.99 C 347.08 64.58 329.53 32.46 312.68 0.00 L 315.90 0.00 C 333.41 33.34 351.06 66.61 368.99 99.73 C 367.00 101.43 364.54 103.14 364.84 106.10 C 287.22 98.08 209.63 89.63 131.99 81.84 C 132.29 79.20 131.40 76.47 128.92 75.20 C 130.21 74.81 131.47 74.28 132.63 73.59 C 168.03 48.77 204.32 25.17 239.45 0.00 Z" />
<path fill="#380038" opacity="1.00" d=" M 424.54 0.00 L 433.54 0.00 C 476.35 13.06 519.98 23.39 562.92 36.05 C 566.63 36.15 571.68 39.98 574.93 36.82 C 572.00 24.32 566.39 12.56 563.75 0.00 L 566.77 0.00 C 569.54 12.53 574.95 24.25 577.99 36.70 C 575.17 37.78 571.81 40.31 573.18 43.74 C 574.51 45.26 576.06 46.71 578.06 47.28 C 566.78 115.69 554.83 184.00 543.51 252.41 C 543.19 256.16 541.77 259.94 542.15 263.75 C 543.93 265.55 545.50 267.87 548.90 265.77 C 614.73 254.35 680.55 242.86 746.39 231.48 C 752.17 230.06 758.26 229.93 763.93 228.06 C 763.74 230.57 765.61 232.25 767.11 233.99 C 764.49 233.26 762.03 231.41 759.09 232.22 C 689.84 244.32 620.56 256.27 551.31 268.39 C 549.93 268.61 546.10 269.78 549.33 270.59 C 622.55 293.40 695.78 316.19 769.00 339.00 C 779.44 341.64 789.41 346.25 800.00 348.23 L 800.00 351.89 C 716.70 325.83 633.29 300.09 550.02 273.96 C 547.79 273.79 543.92 271.64 542.09 274.19 C 562.33 345.33 582.72 416.45 603.02 487.58 C 600.92 488.74 597.81 490.19 597.96 493.00 C 597.75 495.51 600.49 496.66 601.97 498.25 C 577.49 547.90 552.89 597.52 527.97 646.99 C 526.45 650.49 523.73 654.10 524.83 658.12 C 523.56 656.97 522.29 655.83 520.99 654.73 C 529.04 640.17 535.32 624.75 543.00 610.00 C 560.00 576.00 577.00 542.00 594.00 508.00 C 595.72 504.42 597.77 500.96 598.85 497.11 C 596.96 494.86 593.66 496.13 591.11 496.16 C 573.00 498.65 555.01 502.15 536.84 504.01 C 537.86 502.58 539.00 500.85 540.98 500.93 C 559.31 498.25 577.61 495.30 595.98 492.84 C 595.97 492.41 595.95 491.55 595.94 491.12 C 585.57 485.78 575.25 480.35 564.98 474.83 C 565.48 473.58 566.44 472.54 567.91 473.08 C 575.24 476.10 581.77 480.73 588.98 484.03 C 592.57 485.50 595.89 488.45 600.01 488.04 C 579.70 416.79 559.23 345.58 539.00 274.30 C 540.94 273.65 542.49 272.26 543.82 270.74 C 545.13 267.23 541.47 263.71 538.06 263.95 C 550.52 192.57 562.17 121.05 574.62 49.66 C 575.93 46.71 572.34 43.98 569.65 45.50 C 504.90 65.39 440.04 85.07 375.30 105.05 C 374.66 103.12 373.21 101.65 371.89 100.17 C 376.54 101.72 381.19 100.08 385.69 98.64 C 447.14 79.52 508.93 61.24 570.23 41.81 C 564.92 38.68 558.40 38.48 552.68 36.38 C 511.25 24.48 469.45 13.86 428.00 2.03 C 426.58 1.85 425.55 0.90 424.54 0.00 Z" />
<path fill="#380038" opacity="1.00" d=" M 637.36 0.00 L 641.37 0.00 C 624.55 13.19 606.41 24.60 588.97 36.95 C 587.53 38.17 585.24 38.76 584.82 40.82 C 656.58 48.30 728.22 56.89 800.00 64.11 L 800.00 67.07 C 792.27 67.24 784.65 65.83 777.00 65.05 C 712.62 58.22 648.29 50.76 583.90 44.00 C 584.00 44.43 584.20 45.31 584.30 45.74 C 599.41 60.61 613.82 76.25 629.76 90.24 C 643.24 103.76 656.75 117.24 670.24 130.76 C 688.11 146.49 704.13 164.19 721.27 180.71 C 736.82 194.08 750.33 209.65 765.33 223.61 C 765.76 223.72 766.62 223.94 767.04 224.05 C 766.03 225.02 765.07 226.03 764.18 227.09 C 751.45 213.42 737.83 200.60 724.77 187.25 C 705.14 170.27 688.35 150.26 668.77 133.23 C 655.70 120.30 642.79 107.21 629.75 94.25 C 613.70 80.37 599.57 64.43 584.21 49.81 C 583.04 48.45 581.45 47.71 579.94 46.86 C 584.14 44.69 583.58 39.46 579.86 37.14 C 584.07 37.66 587.32 34.79 590.65 32.63 C 606.09 21.57 622.00 11.18 637.36 0.00 Z" />
<path fill="#380038" opacity="1.00" d=" M 48.17 152.15 C 72.50 128.40 97.56 105.46 121.87 81.69 C 122.88 82.77 123.91 83.82 125.03 84.79 C 117.03 87.80 112.82 96.18 106.06 101.07 C 70.60 134.35 35.64 168.17 0.00 201.29 L 0.00 197.28 C 8.43 190.32 16.00 182.44 23.82 174.82 C 32.59 167.98 39.41 159.00 48.17 152.15 Z" />
<path fill="#380038" opacity="1.00" d=" M 127.97 85.16 C 129.34 84.09 130.66 82.95 131.99 81.84 C 131.96 83.20 132.01 84.56 132.13 85.92 C 161.40 134.22 190.91 182.47 220.23 230.77 C 225.84 238.88 229.79 248.12 236.02 255.79 C 233.95 257.40 231.65 259.18 231.68 262.07 C 217.46 260.38 203.23 258.70 189.01 256.96 C 187.29 256.70 183.33 256.08 186.24 254.12 C 201.17 254.18 216.02 256.85 230.81 258.80 C 233.22 257.31 231.34 254.45 230.31 252.70 C 196.06 196.94 162.51 140.73 127.97 85.16 Z" />
<path fill="#380038" opacity="1.00" d=" M 365.20 106.99 C 366.13 108.04 367.13 109.04 368.17 110.01 C 356.24 122.53 345.65 136.26 334.23 149.23 C 307.24 180.91 280.18 212.52 253.23 244.23 C 249.33 249.03 244.58 253.31 241.94 259.02 C 240.93 257.98 239.88 256.99 238.80 256.04 C 239.93 255.10 241.09 254.17 241.99 252.99 C 279.23 209.24 316.51 165.51 353.77 121.77 C 357.74 116.98 362.33 112.59 365.20 106.99 Z" />
<path fill="#380038" opacity="1.00" d=" M 371.95 109.87 C 372.94 108.95 373.90 107.98 374.80 106.97 C 382.30 115.20 390.45 122.81 398.25 130.75 C 410.94 141.32 421.76 153.91 433.82 165.18 C 448.43 177.51 460.54 192.52 475.22 204.77 C 486.49 215.50 496.80 227.25 508.69 237.33 C 518.49 245.87 526.38 256.86 537.09 264.16 C 532.89 266.23 533.35 271.52 537.11 273.77 C 535.45 273.98 533.86 274.45 532.59 275.56 C 486.88 310.60 440.63 344.94 395.07 380.19 C 394.04 379.10 393.00 378.05 391.92 377.04 C 392.60 376.93 393.96 376.71 394.64 376.60 C 439.84 342.49 484.81 308.09 530.07 274.06 C 535.40 274.13 532.57 269.20 530.02 269.99 C 513.55 270.73 497.23 268.58 480.77 268.89 C 481.94 267.62 482.95 265.66 484.99 265.99 C 499.34 265.99 513.65 267.69 528.03 267.01 C 535.17 270.77 533.45 265.40 531.27 263.72 C 521.39 254.27 512.32 243.93 501.77 235.21 C 490.30 224.35 479.90 212.34 467.77 202.21 C 459.14 193.84 450.83 185.16 442.23 176.76 C 427.21 164.18 414.77 148.84 399.77 136.23 C 390.28 127.70 382.46 117.16 371.95 109.87 Z" />
</g>
<g id="#530053ff">
<path fill="#530053" opacity="1.00" d=" M 573.18 43.74 C 571.81 40.31 575.17 37.78 577.99 36.70 C 578.46 36.81 579.39 37.03 579.86 37.14 C 583.58 39.46 584.14 44.69 579.94 46.86 C 579.47 46.96 578.53 47.17 578.06 47.28 C 576.06 46.71 574.51 45.26 573.18 43.74 Z" />
<path fill="#530053" opacity="1.00" d=" M 121.89 80.80 C 121.89 77.66 123.73 75.22 126.91 74.86 C 127.42 74.94 128.42 75.11 128.92 75.20 C 131.40 76.47 132.29 79.20 131.99 81.84 C 130.66 82.95 129.34 84.09 127.97 85.16 C 127.24 85.07 125.77 84.88 125.03 84.79 C 123.91 83.82 122.88 82.77 121.87 81.69 L 121.89 80.80 Z" />
<path fill="#530053" opacity="1.00" d=" M 364.84 106.10 C 364.54 103.14 367.00 101.43 368.99 99.73 C 369.72 99.84 371.16 100.06 371.89 100.17 C 373.21 101.65 374.66 103.12 375.30 105.05 C 375.18 105.53 374.93 106.49 374.80 106.97 C 373.90 107.98 372.94 108.95 371.95 109.87 C 370.69 109.92 369.42 109.97 368.17 110.01 C 367.13 109.04 366.13 108.04 365.20 106.99 L 364.84 106.10 Z" />
<path fill="#530053" opacity="1.00" d=" M 767.04 224.05 C 769.62 223.89 773.02 224.29 773.73 227.29 C 775.36 231.35 771.06 235.07 767.11 233.99 C 765.61 232.25 763.74 230.57 763.93 228.06 L 764.18 227.09 C 765.07 226.03 766.03 225.02 767.04 224.05 Z" />
<path fill="#530053" opacity="1.00" d=" M 231.68 262.07 C 231.65 259.18 233.95 257.40 236.02 255.79 C 236.72 255.86 238.11 255.98 238.80 256.04 C 239.88 256.99 240.93 257.98 241.94 259.02 C 241.97 261.30 241.97 264.54 239.37 265.41 C 236.33 267.31 233.00 264.86 231.68 262.07 Z" />
<path fill="#530053" opacity="1.00" d=" M 537.09 264.16 L 538.06 263.95 C 541.47 263.71 545.13 267.23 543.82 270.74 C 542.49 272.26 540.94 273.65 539.00 274.30 C 538.53 274.17 537.58 273.90 537.11 273.77 C 533.35 271.52 532.89 266.23 537.09 264.16 Z" />
</g>
<g id="#520052ff">
<path fill="#520052" opacity="1.00" d=" M 100.27 377.29 C 104.57 375.55 108.70 380.51 106.92 384.82 C 104.75 386.64 101.52 388.03 98.97 386.06 C 94.94 384.84 96.82 378.08 100.27 377.29 Z" />
<path fill="#520052" opacity="1.00" d=" M 385.06 379.20 C 386.94 377.51 389.41 376.82 391.92 377.04 C 393.00 378.05 394.04 379.10 395.07 380.19 C 395.36 383.04 395.00 386.09 391.67 386.71 C 386.27 390.02 384.39 382.51 385.06 379.20 Z" />
<path fill="#520052" opacity="1.00" d=" M 597.96 493.00 C 597.81 490.19 600.92 488.74 603.02 487.58 C 604.58 488.66 607.74 488.92 607.98 491.04 C 610.13 495.68 605.73 498.56 601.97 498.25 C 600.49 496.66 597.75 495.51 597.96 493.00 Z" />
<path fill="#520052" opacity="1.00" d=" M 307.30 533.28 C 312.70 529.97 314.65 537.48 313.92 540.82 C 312.05 542.18 309.65 543.78 307.27 542.71 C 303.05 541.54 302.35 534.03 307.30 533.28 Z" />
<path fill="#520052" opacity="1.00" d=" M 38.27 594.28 C 40.73 593.31 44.06 594.62 44.71 597.30 C 48.03 602.70 40.52 604.65 37.18 603.92 C 34.58 601.07 33.44 595.23 38.27 594.28 Z" />
<path fill="#520052" opacity="1.00" d=" M 515.05 657.21 C 516.70 655.75 518.88 655.15 520.99 654.73 C 522.29 655.83 523.56 656.97 524.83 658.12 C 524.75 659.96 525.93 662.79 523.69 663.70 C 519.70 667.20 511.78 663.05 515.05 657.21 Z" />
<path fill="#520052" opacity="1.00" d=" M 728.27 732.17 C 733.90 728.99 736.98 735.50 735.92 739.82 C 733.74 741.63 730.52 743.02 727.97 741.06 C 724.07 739.79 725.27 733.88 728.27 732.17 Z" />
<path fill="#520052" opacity="1.00" d=" M 293.27 759.29 C 295.12 758.40 297.10 759.31 298.69 760.31 C 302.06 761.86 299.50 766.78 297.82 768.92 C 294.26 769.69 287.00 767.56 290.02 762.03 C 289.88 760.34 292.18 760.08 293.27 759.29 Z" />
</g>
</svg>
