<?xml version="1.0" encoding="UTF-8" ?>
<!DOCTYPE svg PUBLIC "-//W3C//DTD SVG 1.1//EN" "http://www.w3.org/Graphics/SVG/1.1/DTD/svg11.dtd">
<svg width="512pt" height="512pt" viewBox="0 0 512 512" version="1.1" xmlns="http://www.w3.org/2000/svg">
<g id="#000000ff">
<path fill="#000000" opacity="1.00" d=" M 193.48 27.49 C 211.08 8.19 237.92 -2.06 263.91 0.54 C 284.65 2.36 304.50 12.17 318.60 27.47 C 377.55 91.16 436.47 154.89 495.40 218.59 C 499.23 222.79 503.39 226.80 506.20 231.80 C 509.56 237.50 511.33 243.99 512.00 250.54 L 512.00 451.31 C 511.07 465.29 505.72 478.96 496.48 489.54 C 484.79 503.28 467.07 511.65 449.02 511.82 C 420.24 511.92 391.46 511.85 362.68 511.85 C 362.64 469.24 362.70 426.63 362.65 384.02 C 362.58 359.88 354.00 335.93 338.84 317.17 C 322.40 296.54 298.21 282.11 272.10 278.06 C 249.97 274.50 226.74 278.43 207.00 289.02 C 178.71 303.85 157.71 331.80 151.49 363.14 C 149.55 372.29 149.18 381.68 149.33 391.00 C 149.35 431.26 149.30 471.52 149.36 511.78 C 120.90 511.96 92.44 511.84 63.98 511.84 C 47.95 511.91 32.10 505.57 20.41 494.63 C 8.30 483.59 1.06 467.73 0.00 451.43 L 0.00 250.18 C 1.08 240.70 4.87 231.44 11.49 224.48 C 72.17 158.83 132.79 93.12 193.48 27.49 Z" />
<path fill="#000000" opacity="1.00" d=" M 221.65 329.64 C 231.84 323.19 243.86 319.56 255.94 319.78 C 272.36 319.51 288.75 326.14 300.45 337.65 C 313.16 349.79 320.74 367.38 320.00 385.02 C 319.99 427.35 320.01 469.67 319.99 512.00 L 192.01 512.00 C 191.99 468.00 192.00 423.99 192.01 379.99 C 192.86 359.67 204.56 340.47 221.65 329.64 Z" />
</g>
</svg>
