<?xml version="1.0" encoding="UTF-8" ?>
<!DOCTYPE svg PUBLIC "-//W3C//DTD SVG 1.1//EN" "http://www.w3.org/Graphics/SVG/1.1/DTD/svg11.dtd">
<svg width="1000pt" height="1000pt" viewBox="0 0 1000 1000" version="1.1" xmlns="http://www.w3.org/2000/svg">
<g id="#001e58ff">
<path fill="#001e58" opacity="1.00" d=" M 0.00 0.00 L 15.05 0.00 C 186.34 171.03 357.39 342.30 528.59 513.42 C 677.08 661.92 825.58 810.41 974.07 958.90 C 982.68 967.62 991.51 976.14 1000.00 984.98 L 1000.00 1000.00 L 984.95 1000.00 C 930.00 945.32 875.29 890.39 820.44 835.61 C 573.77 588.94 327.10 342.27 80.43 95.60 C 53.65 68.71 26.64 42.03 0.00 15.00 L 0.00 0.00 Z" />
<path fill="#001e58" opacity="1.00" d=" M 17.14 0.00 L 45.53 0.00 C 363.71 318.14 681.88 636.29 1000.00 954.48 L 1000.00 982.99 C 783.66 766.69 567.36 550.35 351.03 334.04 C 239.76 222.67 128.29 111.49 17.14 0.00 Z" />
<path fill="#001e58" opacity="1.00" d=" M 49.24 0.00 L 75.79 0.00 C 330.57 254.61 585.20 509.38 839.91 764.05 C 893.26 817.46 946.74 870.74 1000.00 924.24 L 1000.00 950.86 C 683.09 633.89 366.06 317.05 49.24 0.00 Z" />
<path fill="#001e58" opacity="1.00" d=" M 81.36 0.00 L 106.15 0.00 C 357.12 250.99 608.11 501.96 859.08 752.94 C 906.08 799.84 952.89 846.93 1000.00 893.72 L 1000.00 918.69 C 693.79 612.46 387.52 306.29 81.36 0.00 Z" />
<path fill="#001e58" opacity="1.00" d=" M 113.48 0.00 L 136.50 0.00 C 424.35 287.81 712.17 575.66 1000.00 863.49 L 1000.00 886.53 C 704.51 591.01 408.99 295.51 113.48 0.00 Z" />
<path fill="#001e58" opacity="1.00" d=" M 145.64 0.00 L 166.75 0.00 C 317.08 150.08 467.18 300.39 617.42 450.56 C 744.93 578.13 872.56 705.59 1000.00 833.23 L 1000.00 854.37 C 955.33 809.56 910.52 764.88 865.80 720.11 C 625.74 480.09 385.74 239.99 145.64 0.00 Z" />
<path fill="#001e58" opacity="1.00" d=" M 177.79 0.00 L 197.13 0.00 C 430.08 232.97 663.05 465.92 896.01 698.89 C 930.70 733.47 965.17 768.27 1000.00 802.71 L 1000.00 822.21 C 965.23 787.24 930.28 752.46 895.44 717.56 C 656.21 478.39 417.10 239.10 177.79 0.00 Z" />
<path fill="#001e58" opacity="1.00" d=" M 209.90 0.00 L 227.39 0.00 C 484.96 257.48 742.39 515.09 1000.00 772.52 L 1000.00 790.08 C 880.60 670.46 760.99 551.04 641.51 431.49 C 497.62 287.68 353.88 143.72 209.90 0.00 Z" />
<path fill="#001e58" opacity="1.00" d=" M 242.42 0.00 L 257.69 0.00 C 478.68 220.79 699.49 441.78 920.42 662.63 C 946.93 689.20 973.54 715.67 1000.00 742.28 L 1000.00 757.72 C 797.30 555.16 594.73 352.46 392.08 149.86 C 342.23 99.87 292.10 50.15 242.42 0.00 Z" />
<path fill="#001e58" opacity="1.00" d=" M 274.61 0.00 L 288.07 0.00 C 511.39 223.35 734.73 446.67 958.06 670.00 C 972.06 683.91 985.87 698.01 1000.00 711.78 L 1000.00 725.51 C 758.28 483.60 516.35 241.90 274.61 0.00 Z" />
<path fill="#001e58" opacity="1.00" d=" M 306.71 0.00 L 318.24 0.00 C 531.01 212.81 743.82 425.59 956.61 638.38 C 971.10 652.75 985.34 667.37 1000.00 681.58 L 1000.00 693.33 C 985.74 678.82 971.24 664.54 956.90 650.12 C 740.15 433.43 523.51 216.63 306.71 0.00 Z" />
<path fill="#001e58" opacity="1.00" d=" M 338.80 0.00 L 348.85 0.00 C 558.60 209.97 768.55 419.73 978.37 629.62 C 985.62 636.67 992.49 644.13 1000.00 650.92 L 1000.00 661.21 C 994.44 655.37 988.61 649.80 982.96 644.06 C 768.22 429.39 553.62 214.58 338.80 0.00 Z" />
<path fill="#001e58" opacity="1.00" d=" M 370.90 0.00 L 378.99 0.00 C 555.97 177.01 732.98 354.00 909.97 531.00 C 940.02 560.90 969.78 591.09 1000.00 620.81 L 1000.00 629.09 C 996.80 625.61 993.34 622.38 990.03 619.00 C 905.52 534.49 821.00 449.97 736.48 365.46 C 614.60 243.66 492.88 121.69 370.90 0.00 Z" />
<path fill="#001e58" opacity="1.00" d=" M 403.01 0.00 L 409.07 0.00 C 594.68 185.71 780.38 371.33 966.03 557.00 C 977.39 568.19 988.41 579.74 1000.00 590.70 L 1000.00 596.95 C 974.74 571.21 949.03 545.91 923.60 520.34 C 761.44 358.19 599.28 196.03 437.13 33.87 C 425.70 22.64 414.63 11.02 403.01 0.00 Z" />
<path fill="#001e58" opacity="1.00" d=" M 590.87 0.00 L 596.86 0.00 C 724.58 127.97 852.53 255.72 980.35 383.60 C 986.93 389.99 993.11 396.80 1000.00 402.88 L 1000.00 409.21 C 973.18 381.95 945.94 355.09 918.96 327.99 C 809.58 218.68 700.34 109.22 590.87 0.00 Z" />
<path fill="#001e58" opacity="1.00" d=" M 620.89 0.00 L 628.99 0.00 C 737.48 108.53 846.00 217.02 954.50 325.53 C 969.70 340.60 984.64 355.93 1000.00 370.83 L 1000.00 379.09 C 930.96 309.78 861.67 240.72 792.54 171.51 C 735.30 114.36 678.24 57.03 620.89 0.00 Z" />
<path fill="#001e58" opacity="1.00" d=" M 651.03 0.00 L 661.10 0.00 C 769.07 107.98 877.06 215.96 985.03 323.94 C 990.01 328.87 994.88 333.93 1000.00 338.72 L 1000.00 348.95 C 966.75 315.24 933.05 281.95 899.63 248.39 C 842.47 191.23 785.30 134.06 728.14 76.89 C 702.40 51.30 676.94 25.41 651.03 0.00 Z" />
<path fill="#001e58" opacity="1.00" d=" M 681.72 0.00 L 693.24 0.00 C 776.34 83.14 859.47 166.25 942.60 249.37 C 961.76 268.41 980.67 287.71 1000.00 306.57 L 1000.00 318.31 C 995.06 313.13 989.88 308.19 984.86 303.08 C 883.80 202.07 782.82 100.97 681.72 0.00 Z" />
<path fill="#001e58" opacity="1.00" d=" M 711.85 0.00 L 725.41 0.00 C 816.98 91.44 908.35 183.09 1000.00 274.44 L 1000.00 288.16 C 960.09 248.02 919.96 208.08 879.96 168.02 C 823.91 112.03 767.98 55.91 711.85 0.00 Z" />
<path fill="#001e58" opacity="1.00" d=" M 742.45 0.00 L 757.65 0.00 C 838.55 80.63 919.22 161.49 1000.00 242.25 L 1000.00 257.72 C 940.32 198.16 880.75 138.50 821.12 78.89 C 794.93 52.56 768.44 26.52 742.45 0.00 Z" />
<path fill="#001e58" opacity="1.00" d=" M 772.59 0.00 L 790.01 0.00 C 847.50 57.54 905.03 115.03 962.54 172.55 C 975.05 184.96 987.35 197.58 1000.00 209.84 L 1000.00 227.46 C 924.24 151.59 848.38 75.83 772.59 0.00 Z" />
<path fill="#001e58" opacity="1.00" d=" M 802.78 0.00 L 822.14 0.00 C 874.59 52.50 927.09 104.95 979.55 157.43 C 986.38 164.19 993.05 171.10 1000.00 177.72 L 1000.00 197.25 C 990.28 187.22 980.27 177.48 970.44 167.56 C 914.54 111.73 858.76 55.75 802.78 0.00 Z" />
<path fill="#001e58" opacity="1.00" d=" M 833.32 0.00 L 854.33 0.00 C 902.88 48.54 951.36 97.15 1000.00 145.60 L 1000.00 166.84 C 944.46 111.21 888.70 55.79 833.32 0.00 Z" />
<path fill="#001e58" opacity="1.00" d=" M 863.48 0.00 L 886.50 0.00 C 924.35 37.81 962.17 75.66 1000.00 113.49 L 1000.00 136.54 C 954.52 91.00 908.99 45.51 863.48 0.00 Z" />
<path fill="#001e58" opacity="1.00" d=" M 893.76 0.00 L 918.65 0.00 C 945.80 27.08 972.94 54.19 1000.00 81.37 L 1000.00 106.24 C 964.67 70.75 929.25 35.33 893.76 0.00 Z" />
<path fill="#001e58" opacity="1.00" d=" M 924.25 0.00 L 950.80 0.00 C 967.25 16.36 983.68 32.74 1000.00 49.23 L 1000.00 75.85 C 974.75 50.56 949.39 25.39 924.25 0.00 Z" />
<path fill="#001e58" opacity="1.00" d=" M 954.43 0.00 L 982.91 0.00 C 988.69 5.61 994.38 11.31 1000.00 17.09 L 1000.00 45.57 C 984.82 30.37 969.63 15.18 954.43 0.00 Z" />
<path fill="#001e58" opacity="1.00" d=" M 985.04 0.00 L 1000.00 0.00 L 1000.00 15.11 C 994.99 10.10 989.84 5.22 985.04 0.00 Z" />
<path fill="#001e58" opacity="1.00" d=" M 0.00 17.00 C 270.84 287.82 541.67 558.66 812.50 829.49 C 869.27 886.35 926.22 943.03 982.87 1000.00 L 954.47 1000.00 C 636.29 681.86 318.12 363.71 0.00 45.52 L 0.00 17.00 Z" />
<path fill="#001e58" opacity="1.00" d=" M 0.00 49.16 C 166.66 215.77 333.28 382.43 499.92 549.06 C 650.19 699.39 800.58 849.60 950.77 1000.00 L 924.21 1000.00 C 770.76 846.72 617.46 693.28 464.07 539.94 C 309.40 385.20 154.60 230.58 0.00 75.77 L 0.00 49.16 Z" />
<path fill="#001e58" opacity="1.00" d=" M 0.00 81.30 C 306.21 387.54 612.49 693.71 918.64 1000.00 L 893.85 1000.00 C 736.06 842.18 578.24 684.39 420.45 526.59 C 280.28 386.50 140.27 246.25 0.00 106.26 L 0.00 81.30 Z" />
<path fill="#001e58" opacity="1.00" d=" M 0.00 113.48 C 295.50 408.99 591.01 704.49 886.51 1000.00 L 863.50 1000.00 C 575.66 712.18 287.82 424.34 0.00 136.50 L 0.00 113.48 Z" />
<path fill="#001e58" opacity="1.00" d=" M 0.00 145.62 C 125.81 271.59 251.77 397.41 377.64 523.32 C 536.55 682.21 695.41 841.15 854.35 1000.00 L 833.27 1000.00 C 773.90 940.93 714.80 881.57 655.54 822.39 C 437.04 603.83 218.42 385.40 0.00 166.76 L 0.00 145.62 Z" />
<path fill="#001e58" opacity="1.00" d=" M 0.00 177.77 C 108.90 286.93 218.06 395.86 327.05 504.93 C 492.12 669.94 657.07 835.07 822.21 1000.00 L 802.87 1000.00 C 548.42 745.52 293.94 491.07 39.49 236.61 C 26.30 223.53 13.33 210.23 0.00 197.29 L 0.00 177.77 Z" />
<path fill="#001e58" opacity="1.00" d=" M 0.00 209.91 C 88.05 298.21 176.34 386.28 264.48 474.49 C 379.65 589.67 494.83 704.84 610.00 820.02 C 670.05 879.99 729.96 940.11 790.09 1000.00 L 772.61 1000.00 C 515.04 742.52 257.58 484.92 0.00 227.45 L 0.00 209.91 Z" />
<path fill="#001e58" opacity="1.00" d=" M 0.00 242.23 C 225.81 468.02 451.60 693.83 677.40 919.62 C 704.10 946.44 731.05 973.01 757.58 1000.00 L 742.37 1000.00 C 679.30 937.27 616.54 874.22 553.59 811.37 C 369.07 626.82 184.50 442.32 0.00 257.75 L 0.00 242.23 Z" />
<path fill="#001e58" opacity="1.00" d=" M 0.00 274.48 C 241.70 516.41 483.66 758.10 725.39 1000.00 L 711.92 1000.00 C 523.12 811.15 334.27 622.35 145.45 433.52 C 96.94 385.12 48.66 336.48 0.00 288.24 L 0.00 274.48 Z" />
<path fill="#001e58" opacity="1.00" d=" M 0.00 306.67 C 54.93 361.85 110.10 416.80 165.12 471.90 C 341.18 647.92 517.17 824.02 693.27 1000.00 L 681.78 1000.00 C 461.47 779.70 241.17 559.39 20.86 339.08 C 13.90 332.20 7.12 325.14 0.00 318.42 L 0.00 306.67 Z" />
<path fill="#001e58" opacity="1.00" d=" M 0.00 338.78 C 22.73 361.80 45.74 384.56 68.57 407.47 C 266.12 604.97 463.56 802.58 661.19 1000.00 L 651.16 1000.00 C 439.57 788.21 227.80 576.62 16.15 364.90 C 10.75 359.64 5.65 354.07 0.00 349.07 L 0.00 338.78 Z" />
<path fill="#001e58" opacity="1.00" d=" M 0.00 370.90 C 14.20 385.40 28.69 399.62 42.99 414.02 C 160.50 531.52 278.00 649.03 395.51 766.54 C 473.39 844.34 551.12 922.29 629.09 1000.00 L 621.00 1000.00 C 420.88 799.82 220.70 599.69 20.55 399.53 C 13.68 392.77 7.06 385.76 0.00 379.20 L 0.00 370.90 Z" />
<path fill="#001e58" opacity="1.00" d=" M 0.00 403.02 C 2.77 406.24 5.91 409.11 8.88 412.13 C 175.37 578.62 341.86 745.11 508.35 911.60 C 537.93 941.03 567.21 970.76 596.97 1000.00 L 590.93 1000.00 C 421.16 830.13 251.30 660.35 81.49 490.52 C 54.29 463.48 27.41 436.10 0.00 409.28 L 0.00 403.02 Z" />
<path fill="#001e58" opacity="1.00" d=" M 0.00 590.80 C 32.16 623.36 64.69 655.55 96.99 687.97 C 201.05 791.96 304.98 896.10 409.13 1000.00 L 403.20 1000.00 C 280.39 877.07 157.47 754.25 34.62 631.37 C 23.03 620.01 11.90 608.16 0.00 597.12 L 0.00 590.80 Z" />
<path fill="#001e58" opacity="1.00" d=" M 0.00 620.91 C 23.70 644.89 47.68 668.62 71.48 692.51 C 174.04 794.98 276.44 897.63 379.10 1000.00 L 371.01 1000.00 C 262.36 891.31 153.68 782.66 45.01 673.99 C 29.97 659.10 15.23 643.90 0.00 629.20 L 0.00 620.91 Z" />
<path fill="#001e58" opacity="1.00" d=" M 0.00 651.05 C 12.76 664.27 25.96 677.07 38.89 690.13 C 121.54 772.79 204.20 855.44 286.85 938.10 C 307.60 958.69 328.05 979.60 348.98 1000.00 L 338.87 1000.00 C 230.76 891.82 122.58 783.70 14.45 675.54 C 9.64 670.78 4.96 665.90 0.00 661.31 L 0.00 651.05 Z" />
<path fill="#001e58" opacity="1.00" d=" M 0.00 681.66 C 3.91 685.88 8.13 689.81 12.15 693.93 C 114.21 795.94 216.18 898.04 318.28 1000.00 L 306.73 1000.00 C 258.16 951.32 209.50 902.74 160.88 854.11 C 107.22 800.57 53.81 746.78 0.00 693.41 L 0.00 681.66 Z" />
<path fill="#001e58" opacity="1.00" d=" M 0.00 711.83 C 46.57 758.66 93.39 805.25 140.05 852.00 C 189.44 901.31 238.69 950.77 288.16 1000.00 L 274.59 1000.00 C 183.02 908.57 91.65 816.92 0.00 725.56 L 0.00 711.83 Z" />
<path fill="#001e58" opacity="1.00" d=" M 0.00 742.23 C 65.98 808.19 131.94 874.18 197.92 940.14 C 217.76 960.14 237.91 979.82 257.56 1000.00 L 242.36 1000.00 C 194.80 952.77 147.55 905.23 100.10 857.88 C 66.75 824.48 33.31 791.16 0.00 757.72 L 0.00 742.23 Z" />
<path fill="#001e58" opacity="1.00" d=" M 0.00 772.52 C 75.75 848.41 151.61 924.19 227.43 1000.00 L 210.00 1000.00 C 156.52 946.48 103.00 893.00 49.51 839.50 C 32.98 823.07 16.67 806.43 0.00 790.15 L 0.00 772.52 Z" />
<path fill="#001e58" opacity="1.00" d=" M 0.00 802.77 C 10.24 813.27 20.73 823.53 31.06 833.94 C 86.46 889.28 141.74 944.73 197.20 1000.00 L 177.86 1000.00 C 118.57 940.76 59.42 881.37 0.00 822.26 L 0.00 802.77 Z" />
<path fill="#001e58" opacity="1.00" d=" M 0.00 833.16 C 55.57 888.78 111.28 944.26 166.73 1000.00 L 145.68 1000.00 C 97.12 951.46 48.63 902.85 0.00 854.39 L 0.00 833.16 Z" />
<path fill="#001e58" opacity="1.00" d=" M 0.00 863.47 C 45.49 908.99 91.01 954.49 136.52 1000.00 L 113.50 1000.00 C 75.66 962.18 37.82 924.34 0.00 886.50 L 0.00 863.47 Z" />
<path fill="#001e58" opacity="1.00" d=" M 0.00 893.75 C 35.32 929.26 70.75 964.65 106.23 1000.00 L 81.34 1000.00 C 54.20 972.92 27.07 945.81 0.00 918.65 L 0.00 893.75 Z" />
<path fill="#001e58" opacity="1.00" d=" M 0.00 924.14 C 25.25 949.44 50.60 974.63 75.78 1000.00 L 49.21 1000.00 C 32.75 983.65 16.32 967.26 0.00 950.77 L 0.00 924.14 Z" />
<path fill="#001e58" opacity="1.00" d=" M 0.00 954.45 C 15.19 969.63 30.37 984.81 45.56 1000.00 L 17.07 1000.00 C 11.32 994.37 5.60 988.69 0.00 982.91 L 0.00 954.45 Z" />
<path fill="#001e58" opacity="1.00" d=" M 0.00 984.87 C 4.99 989.90 10.16 994.77 14.96 1000.00 L 0.00 1000.00 L 0.00 984.87 Z" />
</g>
<g id="#000022ff">
<path fill="#000022" opacity="1.00" d=" M 15.05 0.00 L 17.14 0.00 C 128.29 111.49 239.76 222.67 351.03 334.04 C 567.36 550.35 783.66 766.69 1000.00 982.99 L 1000.00 984.98 C 991.51 976.14 982.68 967.62 974.07 958.90 C 825.58 810.41 677.08 661.92 528.59 513.42 C 357.39 342.30 186.34 171.03 15.05 0.00 Z" />
<path fill="#000022" opacity="1.00" d=" M 45.53 0.00 L 49.24 0.00 C 366.06 317.05 683.09 633.89 1000.00 950.86 L 1000.00 954.48 C 681.88 636.29 363.71 318.14 45.53 0.00 Z" />
<path fill="#000022" opacity="1.00" d=" M 75.79 0.00 L 81.36 0.00 C 387.52 306.29 693.79 612.46 1000.00 918.69 L 1000.00 924.24 C 946.74 870.74 893.26 817.46 839.91 764.05 C 585.20 509.38 330.57 254.61 75.79 0.00 Z" />
<path fill="#000022" opacity="1.00" d=" M 106.15 0.00 L 113.48 0.00 C 408.99 295.51 704.51 591.01 1000.00 886.53 L 1000.00 893.72 C 952.89 846.93 906.08 799.84 859.08 752.94 C 608.11 501.96 357.12 250.99 106.15 0.00 Z" />
<path fill="#000022" opacity="1.00" d=" M 136.50 0.00 L 145.64 0.00 C 385.74 239.99 625.74 480.09 865.80 720.11 C 910.52 764.88 955.33 809.56 1000.00 854.37 L 1000.00 863.49 C 712.17 575.66 424.35 287.81 136.50 0.00 Z" />
<path fill="#000022" opacity="1.00" d=" M 166.75 0.00 L 177.79 0.00 C 417.10 239.10 656.21 478.39 895.44 717.56 C 930.28 752.46 965.23 787.24 1000.00 822.21 L 1000.00 833.23 C 872.56 705.59 744.93 578.13 617.42 450.56 C 467.18 300.39 317.08 150.08 166.75 0.00 Z" />
<path fill="#000022" opacity="1.00" d=" M 197.13 0.00 L 209.90 0.00 C 353.88 143.72 497.62 287.68 641.51 431.49 C 760.99 551.04 880.60 670.46 1000.00 790.08 L 1000.00 802.71 C 965.17 768.27 930.70 733.47 896.01 698.89 C 663.05 465.92 430.08 232.97 197.13 0.00 Z" />
<path fill="#000022" opacity="1.00" d=" M 227.39 0.00 L 242.42 0.00 C 292.10 50.15 342.23 99.87 392.08 149.86 C 594.73 352.46 797.30 555.16 1000.00 757.72 L 1000.00 772.52 C 742.39 515.09 484.96 257.48 227.39 0.00 Z" />
<path fill="#000022" opacity="1.00" d=" M 257.69 0.00 L 274.61 0.00 C 516.35 241.90 758.28 483.60 1000.00 725.51 L 1000.00 742.28 C 973.54 715.67 946.93 689.20 920.42 662.63 C 699.49 441.78 478.68 220.79 257.69 0.00 Z" />
<path fill="#000022" opacity="1.00" d=" M 288.07 0.00 L 306.71 0.00 C 523.51 216.63 740.15 433.43 956.90 650.12 C 971.24 664.54 985.74 678.82 1000.00 693.33 L 1000.00 711.78 C 985.87 698.01 972.06 683.91 958.06 670.00 C 734.73 446.67 511.39 223.35 288.07 0.00 Z" />
<path fill="#000022" opacity="1.00" d=" M 318.24 0.00 L 338.80 0.00 C 553.62 214.58 768.22 429.39 982.96 644.06 C 988.61 649.80 994.44 655.37 1000.00 661.21 L 1000.00 681.58 C 985.34 667.37 971.10 652.75 956.61 638.38 C 743.82 425.59 531.01 212.81 318.24 0.00 Z" />
<path fill="#000022" opacity="1.00" d=" M 348.85 0.00 L 370.90 0.00 C 492.88 121.69 614.60 243.66 736.48 365.46 C 821.00 449.97 905.52 534.49 990.03 619.00 C 993.34 622.38 996.80 625.61 1000.00 629.09 L 1000.00 650.92 C 992.49 644.13 985.62 636.67 978.37 629.62 C 768.55 419.73 558.60 209.97 348.85 0.00 Z" />
<path fill="#000022" opacity="1.00" d=" M 378.99 0.00 L 403.01 0.00 C 414.63 11.02 425.70 22.64 437.13 33.87 C 599.28 196.03 761.44 358.19 923.60 520.34 C 949.03 545.91 974.74 571.21 1000.00 596.95 L 1000.00 620.81 C 969.78 591.09 940.02 560.90 909.97 531.00 C 732.98 354.00 555.97 177.01 378.99 0.00 Z" />
<path fill="#000022" opacity="1.00" d=" M 409.07 0.00 L 590.87 0.00 C 700.34 109.22 809.58 218.68 918.96 327.99 C 945.94 355.09 973.18 381.95 1000.00 409.21 L 1000.00 590.70 C 988.41 579.74 977.39 568.19 966.03 557.00 C 780.38 371.33 594.68 185.71 409.07 0.00 Z" />
<path fill="#000022" opacity="1.00" d=" M 596.86 0.00 L 620.89 0.00 C 678.24 57.03 735.30 114.36 792.54 171.51 C 861.67 240.72 930.96 309.78 1000.00 379.09 L 1000.00 402.88 C 993.11 396.80 986.93 389.99 980.35 383.60 C 852.53 255.72 724.58 127.97 596.86 0.00 Z" />
<path fill="#000022" opacity="1.00" d=" M 628.99 0.00 L 651.03 0.00 C 676.94 25.41 702.40 51.30 728.14 76.89 C 785.30 134.06 842.47 191.23 899.63 248.39 C 933.05 281.95 966.75 315.24 1000.00 348.95 L 1000.00 370.83 C 984.64 355.93 969.70 340.60 954.50 325.53 C 846.00 217.02 737.48 108.53 628.99 0.00 Z" />
<path fill="#000022" opacity="1.00" d=" M 661.10 0.00 L 681.72 0.00 C 782.82 100.97 883.80 202.07 984.86 303.08 C 989.88 308.19 995.06 313.13 1000.00 318.31 L 1000.00 338.72 C 994.88 333.93 990.01 328.87 985.03 323.94 C 877.06 215.96 769.07 107.98 661.10 0.00 Z" />
<path fill="#000022" opacity="1.00" d=" M 693.24 0.00 L 711.85 0.00 C 767.98 55.91 823.91 112.03 879.96 168.02 C 919.96 208.08 960.09 248.02 1000.00 288.16 L 1000.00 306.57 C 980.67 287.71 961.76 268.41 942.60 249.37 C 859.47 166.25 776.34 83.14 693.24 0.00 Z" />
<path fill="#000022" opacity="1.00" d=" M 725.41 0.00 L 742.45 0.00 C 768.44 26.52 794.93 52.56 821.12 78.89 C 880.75 138.50 940.32 198.16 1000.00 257.72 L 1000.00 274.44 C 908.35 183.09 816.98 91.44 725.41 0.00 Z" />
<path fill="#000022" opacity="1.00" d=" M 757.65 0.00 L 772.59 0.00 C 848.38 75.83 924.24 151.59 1000.00 227.46 L 1000.00 242.25 C 919.22 161.49 838.55 80.63 757.65 0.00 Z" />
<path fill="#000022" opacity="1.00" d=" M 790.01 0.00 L 802.78 0.00 C 858.76 55.75 914.54 111.73 970.44 167.56 C 980.27 177.48 990.28 187.22 1000.00 197.25 L 1000.00 209.84 C 987.35 197.58 975.05 184.96 962.54 172.55 C 905.03 115.03 847.50 57.54 790.01 0.00 Z" />
<path fill="#000022" opacity="1.00" d=" M 822.14 0.00 L 833.32 0.00 C 888.70 55.79 944.46 111.21 1000.00 166.84 L 1000.00 177.72 C 993.05 171.10 986.38 164.19 979.55 157.43 C 927.09 104.95 874.59 52.50 822.14 0.00 Z" />
<path fill="#000022" opacity="1.00" d=" M 854.33 0.00 L 863.48 0.00 C 908.99 45.51 954.52 91.00 1000.00 136.54 L 1000.00 145.60 C 951.36 97.15 902.88 48.54 854.33 0.00 Z" />
<path fill="#000022" opacity="1.00" d=" M 886.50 0.00 L 893.76 0.00 C 929.25 35.33 964.67 70.75 1000.00 106.24 L 1000.00 113.49 C 962.17 75.66 924.35 37.81 886.50 0.00 Z" />
<path fill="#000022" opacity="1.00" d=" M 918.65 0.00 L 924.25 0.00 C 949.39 25.39 974.75 50.56 1000.00 75.85 L 1000.00 81.37 C 972.94 54.19 945.80 27.08 918.65 0.00 Z" />
<path fill="#000022" opacity="1.00" d=" M 950.80 0.00 L 954.43 0.00 C 969.63 15.18 984.82 30.37 1000.00 45.57 L 1000.00 49.23 C 983.68 32.74 967.25 16.36 950.80 0.00 Z" />
<path fill="#000022" opacity="1.00" d=" M 982.91 0.00 L 985.04 0.00 C 989.84 5.22 994.99 10.10 1000.00 15.11 L 1000.00 17.09 C 994.38 11.31 988.69 5.61 982.91 0.00 Z" />
<path fill="#000022" opacity="1.00" d=" M 0.00 15.00 C 26.64 42.03 53.65 68.71 80.43 95.60 C 327.10 342.27 573.77 588.94 820.44 835.61 C 875.29 890.39 930.00 945.32 984.95 1000.00 L 982.87 1000.00 C 926.22 943.03 869.27 886.35 812.50 829.49 C 541.67 558.66 270.84 287.82 0.00 17.00 L 0.00 15.00 Z" />
<path fill="#000022" opacity="1.00" d=" M 0.00 45.52 C 318.12 363.71 636.29 681.86 954.47 1000.00 L 950.77 1000.00 C 800.58 849.60 650.19 699.39 499.92 549.06 C 333.28 382.43 166.66 215.77 0.00 49.16 L 0.00 45.52 Z" />
<path fill="#000022" opacity="1.00" d=" M 0.00 75.77 C 154.60 230.58 309.40 385.20 464.07 539.94 C 617.46 693.28 770.76 846.72 924.21 1000.00 L 918.64 1000.00 C 612.49 693.71 306.21 387.54 0.00 81.30 L 0.00 75.77 Z" />
<path fill="#000022" opacity="1.00" d=" M 0.00 106.26 C 140.27 246.25 280.28 386.50 420.45 526.59 C 578.24 684.39 736.06 842.18 893.85 1000.00 L 886.51 1000.00 C 591.01 704.49 295.50 408.99 0.00 113.48 L 0.00 106.26 Z" />
<path fill="#000022" opacity="1.00" d=" M 0.00 136.50 C 287.82 424.34 575.66 712.18 863.50 1000.00 L 854.35 1000.00 C 695.41 841.15 536.55 682.21 377.64 523.32 C 251.77 397.41 125.81 271.59 0.00 145.62 L 0.00 136.50 Z" />
<path fill="#000022" opacity="1.00" d=" M 0.00 166.76 C 218.42 385.40 437.04 603.83 655.54 822.39 C 714.80 881.57 773.90 940.93 833.27 1000.00 L 822.21 1000.00 C 657.07 835.07 492.12 669.94 327.05 504.93 C 218.06 395.86 108.90 286.93 0.00 177.77 L 0.00 166.76 Z" />
<path fill="#000022" opacity="1.00" d=" M 0.00 197.29 C 13.33 210.23 26.30 223.53 39.49 236.61 C 293.94 491.07 548.42 745.52 802.87 1000.00 L 790.09 1000.00 C 729.96 940.11 670.05 879.99 610.00 820.02 C 494.83 704.84 379.65 589.67 264.48 474.49 C 176.34 386.28 88.05 298.21 0.00 209.91 L 0.00 197.29 Z" />
<path fill="#000022" opacity="1.00" d=" M 0.00 227.45 C 257.58 484.92 515.04 742.52 772.61 1000.00 L 757.58 1000.00 C 731.05 973.01 704.10 946.44 677.40 919.62 C 451.60 693.83 225.81 468.02 0.00 242.23 L 0.00 227.45 Z" />
<path fill="#000022" opacity="1.00" d=" M 0.00 257.75 C 184.50 442.32 369.07 626.82 553.59 811.37 C 616.54 874.22 679.30 937.27 742.37 1000.00 L 725.39 1000.00 C 483.66 758.10 241.70 516.41 0.00 274.48 L 0.00 257.75 Z" />
<path fill="#000022" opacity="1.00" d=" M 0.00 288.24 C 48.66 336.48 96.94 385.12 145.45 433.52 C 334.27 622.35 523.12 811.15 711.92 1000.00 L 693.27 1000.00 C 517.17 824.02 341.18 647.92 165.12 471.90 C 110.10 416.80 54.93 361.85 0.00 306.67 L 0.00 288.24 Z" />
<path fill="#000022" opacity="1.00" d=" M 0.00 318.42 C 7.12 325.14 13.90 332.20 20.86 339.08 C 241.17 559.39 461.47 779.70 681.78 1000.00 L 661.19 1000.00 C 463.56 802.58 266.12 604.97 68.57 407.47 C 45.74 384.56 22.73 361.80 0.00 338.78 L 0.00 318.42 Z" />
<path fill="#000022" opacity="1.00" d=" M 0.00 349.07 C 5.65 354.07 10.75 359.64 16.15 364.90 C 227.80 576.62 439.57 788.21 651.16 1000.00 L 629.09 1000.00 C 551.12 922.29 473.39 844.34 395.51 766.54 C 278.00 649.03 160.50 531.52 42.99 414.02 C 28.69 399.62 14.20 385.40 0.00 370.90 L 0.00 349.07 Z" />
<path fill="#000022" opacity="1.00" d=" M 0.00 379.20 C 7.06 385.76 13.68 392.77 20.55 399.53 C 220.70 599.69 420.88 799.82 621.00 1000.00 L 596.97 1000.00 C 567.21 970.76 537.93 941.03 508.35 911.60 C 341.86 745.11 175.37 578.62 8.88 412.13 C 5.91 409.11 2.77 406.24 0.00 403.02 L 0.00 379.20 Z" />
<path fill="#000022" opacity="1.00" d=" M 0.00 409.28 C 27.41 436.10 54.29 463.48 81.49 490.52 C 251.30 660.35 421.16 830.13 590.93 1000.00 L 409.13 1000.00 C 304.98 896.10 201.05 791.96 96.99 687.97 C 64.69 655.55 32.16 623.36 0.00 590.80 L 0.00 409.28 Z" />
<path fill="#000022" opacity="1.00" d=" M 0.00 597.12 C 11.90 608.16 23.03 620.01 34.62 631.37 C 157.47 754.25 280.39 877.07 403.20 1000.00 L 379.10 1000.00 C 276.44 897.63 174.04 794.98 71.48 692.51 C 47.68 668.62 23.70 644.89 0.00 620.91 L 0.00 597.12 Z" />
<path fill="#000022" opacity="1.00" d=" M 0.00 629.20 C 15.23 643.90 29.97 659.10 45.01 673.99 C 153.68 782.66 262.36 891.31 371.01 1000.00 L 348.98 1000.00 C 328.05 979.60 307.60 958.69 286.85 938.10 C 204.20 855.44 121.54 772.79 38.89 690.13 C 25.96 677.07 12.76 664.27 0.00 651.05 L 0.00 629.20 Z" />
<path fill="#000022" opacity="1.00" d=" M 0.00 661.31 C 4.96 665.90 9.64 670.78 14.45 675.54 C 122.58 783.70 230.76 891.82 338.87 1000.00 L 318.28 1000.00 C 216.18 898.04 114.21 795.94 12.15 693.93 C 8.13 689.81 3.91 685.88 0.00 681.66 L 0.00 661.31 Z" />
<path fill="#000022" opacity="1.00" d=" M 0.00 693.41 C 53.81 746.78 107.22 800.57 160.88 854.11 C 209.50 902.74 258.16 951.32 306.73 1000.00 L 288.16 1000.00 C 238.69 950.77 189.44 901.31 140.05 852.00 C 93.39 805.25 46.57 758.66 0.00 711.83 L 0.00 693.41 Z" />
<path fill="#000022" opacity="1.00" d=" M 0.00 725.56 C 91.65 816.92 183.02 908.57 274.59 1000.00 L 257.56 1000.00 C 237.91 979.82 217.76 960.14 197.92 940.14 C 131.94 874.18 65.98 808.19 0.00 742.23 L 0.00 725.56 Z" />
<path fill="#000022" opacity="1.00" d=" M 0.00 757.72 C 33.31 791.16 66.75 824.48 100.10 857.88 C 147.55 905.23 194.80 952.77 242.36 1000.00 L 227.43 1000.00 C 151.61 924.19 75.75 848.41 0.00 772.52 L 0.00 757.72 Z" />
<path fill="#000022" opacity="1.00" d=" M 0.00 790.15 C 16.67 806.43 32.98 823.07 49.51 839.50 C 103.00 893.00 156.52 946.48 210.00 1000.00 L 197.20 1000.00 C 141.74 944.73 86.46 889.28 31.06 833.94 C 20.73 823.53 10.24 813.27 0.00 802.77 L 0.00 790.15 Z" />
<path fill="#000022" opacity="1.00" d=" M 0.00 822.26 C 59.42 881.37 118.57 940.76 177.86 1000.00 L 166.73 1000.00 C 111.28 944.26 55.57 888.78 0.00 833.16 L 0.00 822.26 Z" />
<path fill="#000022" opacity="1.00" d=" M 0.00 854.39 C 48.63 902.85 97.12 951.46 145.68 1000.00 L 136.52 1000.00 C 91.01 954.49 45.49 908.99 0.00 863.47 L 0.00 854.39 Z" />
<path fill="#000022" opacity="1.00" d=" M 0.00 886.50 C 37.82 924.34 75.66 962.18 113.50 1000.00 L 106.23 1000.00 C 70.75 964.65 35.32 929.26 0.00 893.75 L 0.00 886.50 Z" />
<path fill="#000022" opacity="1.00" d=" M 0.00 918.65 C 27.07 945.81 54.20 972.92 81.34 1000.00 L 75.78 1000.00 C 50.60 974.63 25.25 949.44 0.00 924.14 L 0.00 918.65 Z" />
<path fill="#000022" opacity="1.00" d=" M 0.00 950.77 C 16.32 967.26 32.75 983.65 49.21 1000.00 L 45.56 1000.00 C 30.37 984.81 15.19 969.63 0.00 954.45 L 0.00 950.77 Z" />
<path fill="#000022" opacity="1.00" d=" M 0.00 982.91 C 5.60 988.69 11.32 994.37 17.07 1000.00 L 14.96 1000.00 C 10.16 994.77 4.99 989.90 0.00 984.87 L 0.00 982.91 Z" />
</g>
</svg>
