<?xml version="1.0" encoding="UTF-8" ?>
<!DOCTYPE svg PUBLIC "-//W3C//DTD SVG 1.1//EN" "http://www.w3.org/Graphics/SVG/1.1/DTD/svg11.dtd">
<svg width="512pt" height="512pt" viewBox="0 0 512 512" version="1.1" xmlns="http://www.w3.org/2000/svg">
<g id="#000000ff">
<path fill="#000000" opacity="1.00" d=" M 252.94 0.00 L 258.78 0.00 C 265.45 0.88 272.02 3.37 277.05 7.92 C 284.20 14.09 288.24 23.53 288.00 32.95 C 288.01 96.63 287.99 160.31 288.00 224.00 C 350.01 224.00 412.03 224.00 474.04 223.99 C 480.50 223.83 487.22 223.98 493.17 226.85 C 503.57 231.38 510.68 241.81 512.00 252.98 L 512.00 258.72 C 510.86 269.55 504.25 279.73 494.39 284.56 C 489.34 287.16 483.61 288.15 477.97 288.01 C 414.65 287.99 351.33 288.00 288.00 288.00 C 287.98 352.03 288.04 416.06 287.98 480.08 C 288.03 490.61 282.45 500.92 273.64 506.68 C 269.30 509.65 264.16 511.15 259.01 512.00 L 254.36 512.00 C 246.78 511.49 239.36 508.41 233.90 503.09 C 227.36 496.96 223.77 487.97 224.00 479.04 C 224.00 415.36 224.01 351.68 224.00 288.00 C 160.01 287.98 96.03 288.02 32.05 287.98 C 21.23 288.08 10.66 282.23 4.95 273.06 C 2.20 268.86 0.81 263.96 0.00 259.06 L 0.00 253.21 C 0.93 245.59 4.23 238.19 9.88 232.91 C 15.99 226.97 24.52 223.77 33.02 224.00 C 96.68 224.00 160.34 224.00 224.00 224.00 C 224.02 160.00 223.97 96.00 224.02 32.00 C 223.97 23.12 227.84 14.34 234.43 8.39 C 239.48 3.65 246.13 0.97 252.94 0.00 Z" />
</g>
</svg>
